<svg xmlns="http://www.w3.org/2000/svg" viewBox="0 0 24 24" fill="#f59e0b">
  <path d="M12 2a1 1 0 0 1 .993.883L13 3v1.171l5.317 1.772a1 1 0 0 1 .672 1.135l-.01.082l-.46 2.302c1.923.633 3.321 2.348 3.473 4.41l.008.243V15a3 3 0 0 1-2.824 2.995L19 18h-5v3h3a1 1 0 0 1 .117 1.993L17 23H7a1 1 0 0 1-.117-1.993L7 21h3v-3H5a3 3 0 0 1-2.995-2.824L2 15v-.885c0-2.222 1.542-4.053 3.655-4.571l-.348-1.74a1 1 0 0 1 .59-1.135l.092-.033L11 4.17V3a1 1 0 0 1 .883-.993L12 2zm6.673 8.35c.55 2.748-1.205 5.313-3.953 5.827l-.317.05v.678h4.673a1 1 0 0 0 .993-.883l.007-.117v-.885zm-13.346 0C3.9 10.615 3 12.115 3 13.615v.885a1 1 0 0 0 1 1h4.673v-.678l-.317-.05c-2.748-.514-4.503-3.08-3.953-5.827l.24-1.198zM12 6.396l-3.6 1.2v6.08a4.002 4.002 0 0 0 7.2 0V7.596z"/>
</svg>
